<svg width="596" height="285" viewBox="0 0 596 285" fill="none" xmlns="http://www.w3.org/2000/svg">
<g clip-path="url(#clip0_370_2)">
<path fill-rule="evenodd" clip-rule="evenodd" d="M168.401 66.2367H169.715L170.857 62.3416C171.543 59.9739 172.058 58.2555 172.4 57.1862C170.915 56.2697 168.991 55.3532 166.63 54.4366C164.116 53.4056 160.804 52.4891 156.69 51.6871C152.577 50.847 147.873 50.4269 142.579 50.4269C139.304 50.4269 136.143 50.6561 133.096 51.1143C130.088 51.5726 127.212 52.2409 124.47 53.1192C118.833 54.9522 113.959 57.6445 109.846 61.196C105.733 64.7474 102.553 69.139 100.306 74.3708C98.0586 79.6026 96.9349 85.579 96.9349 92.3001C96.9349 100.319 98.4963 107.479 101.619 113.781C104.78 120.081 109.579 125.008 116.016 128.559C122.49 132.073 130.526 133.829 140.123 133.829C145.608 133.829 150.997 133.352 156.29 132.397C161.584 131.481 166.802 130.163 171.943 128.445V95.2215L168.8 95.4506L166.801 95.5649L164.631 95.4506L161.66 95.2215V125.352C156.443 128.025 150.349 129.361 143.379 129.361C139.609 129.361 136.125 128.979 132.925 128.216C129.764 127.452 126.869 126.326 124.242 124.836C118.948 121.743 114.987 117.39 112.36 111.776C109.732 106.124 108.417 99.4221 108.417 91.6699C108.417 85.8272 109.218 80.5954 110.817 75.9747C112.455 71.3539 114.758 67.4779 117.729 64.3464C120.7 61.215 124.261 58.8474 128.412 57.2435C132.601 55.6396 137.171 54.8377 142.122 54.8377C144.521 54.8377 147.035 55.124 149.663 55.6968C152.329 56.2315 154.71 56.9571 156.804 57.8736C158.937 58.7519 160.993 59.8785 162.974 61.2533C164.954 62.628 166.764 64.2892 168.401 66.2367ZM60.4079 87.1447V57.7018H69.434L81.1451 57.9309C83.1254 57.9309 85.0487 58.0645 86.9148 58.3318C87.9812 58.4846 89.5617 58.771 91.6564 59.1911L91.4279 57.1289L91.3136 55.6968L91.4279 54.2648L91.6564 52.1454H50.125V132.054H92.3989L92.1134 130.278C92.0372 129.858 91.9992 129.285 91.9992 128.559L92.0563 127.471L92.2277 126.268L92.3989 125.008C89.8474 125.39 87.8098 125.676 86.2864 125.868C84.7631 126.02 83.2016 126.097 81.6021 126.097C79.317 126.097 75.3943 126.173 69.8339 126.326C64.3116 126.478 61.1696 126.555 60.4079 126.555V92.3001H78.5743L81.7163 92.4146L85.201 92.6439L88.9715 92.873L88.7429 90.8107L88.6287 89.6078L88.7429 88.2903L88.9715 86.5145L85.201 86.7437L81.7163 87.0301L78.5743 87.1447H60.4079ZM252.801 91.4408C252.801 87.5838 252.611 84.3188 252.229 81.6456C251.849 78.9725 251.087 76.242 249.944 73.4543C248.84 70.6284 247.336 68.0125 245.432 65.6066C243.527 63.2008 241.299 61.1769 238.747 59.5348C236.233 57.8545 233.415 56.5561 230.292 55.6396C227.169 54.7231 224.104 54.2648 221.095 54.2648C216.03 54.2648 211.44 55.2005 207.327 57.0716C203.214 58.9428 199.73 61.616 196.873 65.0911C194.017 68.528 191.846 72.7096 190.361 77.6358C188.875 82.524 188.133 87.8703 188.133 93.6747C188.133 99.3649 188.914 104.463 190.475 108.969C192.075 113.437 194.36 117.256 197.33 120.425C200.339 123.595 203.804 125.982 207.727 127.586C211.65 129.151 215.763 129.934 220.067 129.934C225.589 129.934 230.425 128.75 234.577 126.383C238.766 123.977 242.175 120.845 244.803 116.989C247.468 113.094 249.468 108.836 250.801 104.215C252.134 99.5554 252.801 95.298 252.801 91.4408ZM219.724 133.829C213.364 133.829 207.499 132.855 202.129 130.908C196.797 128.96 192.227 126.154 188.418 122.488C184.648 118.783 181.734 114.353 179.678 109.198C178.65 106.601 177.888 103.947 177.393 101.236C176.897 98.4864 176.65 95.5077 176.65 92.3001C176.65 86.0372 177.736 80.309 179.906 75.1154C182.077 69.9219 185.181 65.4539 189.218 61.7115C193.103 58.1218 197.654 55.3532 202.872 53.4056C208.127 51.4198 213.821 50.4269 219.952 50.4269C225.589 50.4269 231.073 51.2289 236.405 52.8328C241.737 54.3985 246.479 56.8234 250.63 60.1076C254.819 63.3917 258.133 67.5924 260.57 72.7096C263.046 77.7886 264.283 83.7269 264.283 90.5243C264.283 99.0019 262.398 106.525 258.628 113.094C254.858 119.662 249.564 124.76 242.747 128.388C235.929 132.016 228.255 133.829 219.724 133.829ZM281.273 88.7486V56.4988C281.921 56.4988 282.796 56.4797 283.9 56.4416C285.005 56.4034 285.786 56.3843 286.243 56.3843C286.738 56.3843 287.538 56.3652 288.643 56.327C289.747 56.2888 290.603 56.2697 291.213 56.2697C294.793 56.2697 297.211 56.3843 298.468 56.6134C307.037 58.0645 311.322 62.9908 311.322 71.3921C311.322 75.7456 309.95 79.4116 307.208 82.3902C304.466 85.3307 300.849 87.2593 296.354 88.1757C293.765 88.634 290.566 88.8631 286.757 88.8631L283.729 88.8058L281.273 88.7486ZM270.932 52.1454V132.397L273.732 132.168L276.074 132.054L277.731 132.111C277.998 132.187 278.473 132.225 279.159 132.225L281.273 132.397V93.2165H285.671L295.04 104.272L308.865 122.202C310.388 124.187 312.845 127.586 316.234 132.397L319.091 132.168L320.976 132.054H322.918L325.09 132.111C325.547 132.187 325.908 132.225 326.175 132.225H326.918L329.659 132.397L327.488 129.476L321.833 122.889L297.725 92.3001C300.963 91.689 303.99 90.8298 306.809 89.7224C309.627 88.5767 312.179 87.0874 314.464 85.2543C316.749 83.4213 318.519 81.2255 319.776 78.6669C321.071 76.1084 321.719 73.2252 321.719 70.0173C321.719 64.0218 319.605 59.5539 315.378 56.6134C311.189 53.6347 304.638 52.1454 295.726 52.1454H270.932ZM281.73 233.205L246.801 151.578H244.117L207.613 233.548L209.098 233.376L210.24 233.262L211.668 233.205L213.04 233.262C213.268 233.337 213.668 233.376 214.24 233.376L216.01 233.548C216.886 230.493 217.971 227.151 219.266 223.523L223.036 213.442L227.607 201.871H257.313C259.522 206.873 261.617 211.933 263.597 217.05C265.578 222.168 267.577 227.667 269.596 233.548L272.908 233.319L275.822 233.205L277.764 233.262C278.221 233.337 278.545 233.376 278.736 233.376H279.421L281.878 233.548L281.73 233.205ZM242.574 166.929L255.542 196.945H229.835L242.574 166.929ZM187.652 233.777V158.967C188.871 158.967 191.651 159.062 195.993 159.253C197.706 159.33 199.306 159.368 200.792 159.368L212.102 160.342L211.874 158.28L211.76 156.848L211.874 155.415L212.102 153.296H151.719L151.891 154.786L152.005 155.702L152.062 156.848L151.948 158.452L151.719 160.342C160.708 159.425 169.238 158.967 177.312 158.967V233.777L180.111 233.548L182.511 233.434L184.111 233.491C184.377 233.567 184.853 233.605 185.538 233.605L187.652 233.777ZM286.128 233.205V153.296H309.036C314.825 153.296 319.624 153.812 323.432 154.843C327.279 155.874 330.192 157.592 332.172 159.998C334.153 162.366 335.143 165.535 335.143 169.507C335.143 172.142 334.686 174.586 333.772 176.839C332.858 179.054 331.563 181.059 329.887 182.854C328.211 184.648 326.25 186.156 324.004 187.379C321.985 188.448 319.529 189.403 316.634 190.243C317.739 190.243 318.9 190.357 320.118 190.586C321.337 190.777 322.651 191.083 324.06 191.503C326.65 192.191 328.954 193.26 330.973 194.711C332.991 196.048 334.667 197.899 336 200.267C337.371 202.597 338.056 205.404 338.056 208.688C338.056 216.974 334.553 223.581 327.545 228.507C325.527 229.844 323.127 230.894 320.347 231.658C317.833 232.269 315.149 232.708 312.293 232.976L302.809 233.205H286.128ZM296.411 157.649V188.639H301.21C304.523 188.639 307.265 188.486 309.436 188.18C311.645 187.837 313.815 187.169 315.948 186.176C318.766 184.801 320.957 182.892 322.518 180.448C324.118 178.003 324.918 175.177 324.918 171.97C324.918 168.419 324.137 165.573 322.575 163.435C321.052 161.296 318.823 159.807 315.891 158.967C312.958 158.089 309.341 157.649 305.037 157.649H296.411ZM296.411 192.992V228.851H307.493C311.302 228.851 314.691 228.087 317.662 226.56C320.632 225.032 322.956 222.874 324.632 220.087C326.308 217.261 327.146 214.129 327.146 210.692C327.146 204.277 325.031 199.733 320.804 197.059C316.576 194.348 310.616 192.992 302.923 192.992H296.411ZM359.045 198.262V153.296L355.903 153.525L353.904 153.64L351.733 153.525L348.762 153.296V200.267C348.762 203.169 348.895 205.843 349.162 208.287C349.466 210.73 349.905 213.155 350.476 215.561C351.619 220.03 353.847 223.753 357.16 226.731C359.293 228.641 361.521 230.187 363.844 231.372C366.205 232.555 368.928 233.452 372.013 234.063C375.098 234.675 378.602 234.98 382.525 234.98C389.418 234.98 395.454 233.663 400.634 231.028C405.813 228.355 409.774 224.421 412.516 219.228C415.296 213.996 416.686 207.58 416.686 199.981V153.296L414.686 153.525L413.43 153.64L412.002 153.525L410.174 153.296V197.059C410.174 207.294 408.155 215.275 404.118 221.003C400.082 226.731 393.664 229.595 384.866 229.595C382.467 229.595 380.22 229.423 378.125 229.08C376.031 228.736 374.165 228.259 372.527 227.648C369.176 226.35 366.509 224.383 364.529 221.748C362.586 219.113 361.178 215.867 360.302 212.01C359.464 208.115 359.045 203.532 359.045 198.262ZM440.703 153.296V227.705C441.465 227.705 444.606 227.629 450.129 227.476C455.689 227.323 459.612 227.247 461.897 227.247C463.268 227.247 464.962 227.114 466.981 226.846L473.036 226.159L472.807 228.278L472.694 229.71L472.792 230.942L508.136 151.578H510.82L545.895 233.548L543.439 233.376H542.754C542.565 233.376 542.241 233.337 541.785 233.262L539.842 233.205L536.925 233.319L533.614 233.548C531.597 227.667 529.597 222.168 527.614 217.05C525.636 211.933 523.54 206.873 521.333 201.871H491.627L487.056 213.442L483.285 223.523C481.99 227.151 480.904 230.493 480.029 233.548L478.258 233.376C477.687 233.376 477.287 233.337 477.058 233.262L475.687 233.205L474.259 233.262L473.116 233.376L471.631 233.548L471.784 233.205H430.419V153.296L433.39 153.525L435.561 153.64L437.675 153.525L440.703 153.296ZM506.592 166.929L519.561 196.945H493.855L506.592 166.929Z" fill="#E2E2E9"/>
</g>
<defs>
<clipPath id="clip0_370_2">
<rect width="496" height="185" fill="white" transform="translate(50 50)"/>
</clipPath>
</defs>
</svg>
